HIERARCHY
ROOT joint_Root
{
	OFFSET 0.0 0.0 0.0
	CHANNELS 6 Xposition Yposition Zposition Zrotation Xrotation Yrotation 
	JOINT Hips
	{
		OFFSET -0.726466 93.3139 -2.00062
		CHANNELS 6 Xposition Yposition Zposition Zrotation Xrotation Yrotation 
		JOINT Spine
		{
			OFFSET 15.7357 0.0 0.0
			CHANNELS 6 Xposition Yposition Zposition Zrotation Xrotation Yrotation 
			JOINT Chest
			{
				OFFSET 8.98455 -0.406207 0.0
				CHANNELS 6 Xposition Yposition Zposition Zrotation Xrotation Yrotation 
				JOINT Neck
				{
					OFFSET 16.3773 0.0 0.0
					CHANNELS 6 Xposition Yposition Zposition Zrotation Xrotation Yrotation 
					JOINT Head
					{
						OFFSET 6.45672 0.0 0.0
						CHANNELS 6 Xposition Yposition Zposition Zrotation Xrotation Yrotation 
						End Site
						{
							OFFSET 0.0 0.0 0.0
						}
					}
				}
				JOINT Shoulder_L
				{
					OFFSET 12.9942 -0.242716 4.98039
					CHANNELS 6 Xposition Yposition Zposition Zrotation Xrotation Yrotation 
					JOINT UpperArm_L
					{
						OFFSET 5.34809 0.0 0.0
						CHANNELS 6 Xposition Yposition Zposition Zrotation Xrotation Yrotation 
						JOINT LowerArm_L
						{
							OFFSET 24.3286 1.87007e-05 0.0
							CHANNELS 6 Xposition Yposition Zposition Zrotation Xrotation Yrotation 
							JOINT Hand_L
							{
								OFFSET 22.2916 0.0 0.0
								CHANNELS 6 Xposition Yposition Zposition Zrotation Xrotation Yrotation 
								End Site
								{
									OFFSET 0.0 0.0 0.0
								}
							}
						}
					}
				}
				JOINT Shoulder_R
				{
					OFFSET 12.9945 -0.242716 -4.98039
					CHANNELS 6 Xposition Yposition Zposition Zrotation Xrotation Yrotation 
					JOINT UpperArm_R
					{
						OFFSET -5.34813 0.0 0.0
						CHANNELS 6 Xposition Yposition Zposition Zrotation Xrotation Yrotation 
						JOINT LowerArm_R
						{
							OFFSET -24.3289 0.000322201 0.0
							CHANNELS 6 Xposition Yposition Zposition Zrotation Xrotation Yrotation 
							JOINT Hand_R
							{
								OFFSET -22.2915 -0.000108084 0.0
								CHANNELS 6 Xposition Yposition Zposition Zrotation Xrotation Yrotation 
								End Site
								{
									OFFSET 0.0 0.0 0.0
								}
							}
						}
					}
				}
			}
		}
		JOINT UpperLeg_L
		{
			OFFSET -2.19248 -6.46944 0.0
			CHANNELS 6 Xposition Yposition Zposition Zrotation Xrotation Yrotation 
			JOINT LowerLeg_L
			{
				OFFSET 39.0811 0.0 -1.23785e-05
				CHANNELS 6 Xposition Yposition Zposition Zrotation Xrotation Yrotation 
				JOINT Foot_L
				{
					OFFSET 40.9854 0.0 -1.26872e-05
					CHANNELS 6 Xposition Yposition Zposition Zrotation Xrotation Yrotation 
					JOINT Toes_L
					{
						OFFSET 11.7543 0.0 0.0
						CHANNELS 6 Xposition Yposition Zposition Zrotation Xrotation Yrotation 
						End Site
						{
							OFFSET 0.0 0.0 0.0
						}
					}
				}
			}
		}
		JOINT UpperLeg_R
		{
			OFFSET -2.19251 6.46944 0.0
			CHANNELS 6 Xposition Yposition Zposition Zrotation Xrotation Yrotation 
			JOINT LowerLeg_R
			{
				OFFSET -39.0811 -0.00228153 -0.0401928
				CHANNELS 6 Xposition Yposition Zposition Zrotation Xrotation Yrotation 
				JOINT Foot_R
				{
					OFFSET -40.9854 0.0 0.0
					CHANNELS 6 Xposition Yposition Zposition Zrotation Xrotation Yrotation 
					JOINT Toes_R
					{
						OFFSET -11.7543 0.0 0.0
						CHANNELS 6 Xposition Yposition Zposition Zrotation Xrotation Yrotation 
						End Site
						{
							OFFSET 0.0 0.0 0.0
						}
					}
				}
			}
		}
	}
}
MOTION
Frames:	4
Frame Time:	0.0333333
0.000000 0.000000 0.000000 0.000000 0.000000 -0.000000 -0.850585 92.590600 -1.594550 88.055900 -0.049157 1.483660 15.735700 0.000005 -0.000001 82.238300 85.622300 -81.333500 8.984550 -0.406207 -0.000000 0.919905 -1.236040 1.817990 16.377300 -0.000001 -0.000001 3.242430 -2.224350 0.412954 6.456720 -0.000001 -0.000000 4.100540 -2.276460 -1.006690 12.994200 -0.242716 4.980390 -89.906200 -0.270689 -70.886800 5.348090 -0.000007 -0.000001 -68.978000 39.954800 -13.852100 24.328600 0.000019 0.000005 1.266700 2.811670 -24.263600 22.291600 -0.000001 0.000005 4.953420 5.518150 -7.283350 12.994500 -0.242716 -4.980390 88.283200 4.952990 -70.855100 -5.348130 -0.000001 -0.000004 -65.801500 38.302800 -15.677700 -24.328900 0.000322 -0.000009 2.853930 8.320230 -19.015000 -22.291500 -0.000108 -0.000004 7.776730 5.401840 -2.994870 -2.192480 -6.469440 -0.000000 -175.889000 -4.738670 -4.650890 39.081100 -0.000007 -0.000012 -0.080873 0.210729 20.995600 40.985400 -0.000006 -0.000013 -0.174512 3.833260 -65.182100 11.754300 -0.000000 0.000003 -0.000052 -0.000581 -16.600100 -2.192510 6.469440 -0.000001 -179.184000 13.737600 178.649000 -39.081100 -0.002282 -0.040193 0.014335 -0.035801 17.091600 -40.985400 0.000008 0.000006 4.873630 5.763940 -65.029400 -11.754300 -0.000006 -0.000006 -0.005760 -0.068643 -19.366600
0.000000 0.000000 0.000000 0.000000 0.000000 -0.000000 -0.804909 92.589500 -1.636850 88.050500 -0.131976 1.522060 15.735700 0.000005 -0.000001 82.393000 85.591300 -81.495700 8.984550 -0.406207 -0.000000 0.984154 -1.219840 1.803630 16.377300 -0.000001 -0.000001 3.177610 -2.229410 0.429912 6.456720 -0.000001 -0.000000 4.009580 -2.264190 -1.036340 12.994200 -0.242716 4.980390 -89.894300 -0.304676 -70.868600 5.348090 -0.000007 -0.000001 -69.035100 39.975300 -13.858800 24.328600 0.000019 0.000005 1.267320 2.808870 -24.295400 22.291600 -0.000001 0.000005 4.939050 5.518260 -7.287640 12.994500 -0.242716 -4.980390 88.247000 5.031380 -70.762500 -5.348130 -0.000001 -0.000004 -65.352100 37.380600 -15.887600 -24.328900 0.000322 -0.000009 3.214620 8.524980 -20.755100 -22.291500 -0.000108 -0.000004 5.451610 5.376570 -2.176030 -2.192480 -6.469440 -0.000000 -175.917000 -4.811310 -4.657180 39.081100 -0.000007 -0.000012 -0.079192 0.205844 21.042600 40.985400 -0.000006 -0.000013 -0.141458 3.809510 -65.181300 11.754300 -0.000000 0.000003 -0.000051 -0.000576 -16.599900 -2.192510 6.469440 -0.000001 -179.248000 13.929900 178.633000 -39.081100 -0.002282 -0.040193 0.013883 -0.034210 17.149300 -40.985400 0.000008 0.000006 4.899580 6.021200 -65.039400 -11.754300 -0.000006 -0.000006 -0.005616 -0.067310 -19.312200
0.000000 0.000000 0.000000 0.000000 0.000000 -0.000000 -0.743152 92.599300 -1.689970 88.033900 -0.275983 1.577970 15.735700 0.000005 -0.000001 82.342100 85.555400 -81.455700 8.984550 -0.406207 -0.000000 1.054300 -1.235950 1.782780 16.377300 -0.000001 -0.000001 3.144050 -2.227740 0.371861 6.456720 -0.000001 -0.000000 3.795020 -2.274240 -1.038980 12.994200 -0.242716 4.980390 -89.871900 -0.368107 -70.814600 5.348090 -0.000007 -0.000001 -69.169800 39.916700 -13.760700 24.328600 0.000019 0.000005 1.268630 2.798700 -24.395700 22.291600 -0.000001 0.000005 4.939530 5.517420 -7.252220 12.994500 -0.242716 -4.980390 88.157200 5.224980 -70.541800 -5.348130 -0.000001 -0.000004 -64.498600 35.129500 -16.385900 -24.328900 0.000322 -0.000009 3.974650 9.061550 -23.808000 -22.291500 -0.000108 -0.000004 1.916600 5.346410 -1.250770 -2.192480 -6.469440 -0.000000 -175.936000 -4.921920 -4.591810 39.081100 -0.000007 -0.000012 -0.079574 0.207213 21.007800 40.985400 -0.000006 -0.000013 -0.106885 3.774850 -65.149600 11.754300 -0.000000 0.000003 -0.000050 -0.000564 -16.599500 -2.192510 6.469440 -0.000001 -179.332000 14.247700 178.682000 -39.081100 -0.002282 -0.040193 0.015371 -0.039157 17.096800 -40.985400 0.000008 0.000006 4.898490 6.517520 -64.991300 -11.754300 -0.000006 -0.000006 -0.005813 -0.069129 -19.386400
0.000000 0.000000 0.000000 0.000000 0.000000 -0.000000 -0.649144 92.605700 -1.764090 88.005800 -0.545820 1.547560 15.735700 0.000005 -0.000001 81.772700 85.547100 -80.881100 8.984550 -0.406207 -0.000000 1.059380 -1.326050 1.794160 16.377300 -0.000001 -0.000001 3.129770 -2.175040 0.353674 6.456720 -0.000001 -0.000000 3.468000 -2.037570 -1.367720 12.994200 -0.242716 4.980390 -89.858800 -0.404898 -70.767000 5.348090 -0.000007 -0.000001 -69.459900 39.692100 -13.458400 24.328600 0.000019 0.000005 1.179550 2.593880 -24.463000 22.291600 -0.000001 0.000005 4.911290 5.516820 -7.226900 12.994500 -0.242716 -4.980390 88.084900 5.315750 -70.154600 -5.348130 -0.000001 -0.000004 -63.027600 32.071700 -17.689400 -24.328900 0.000322 -0.000009 4.877280 9.149320 -28.223300 -22.291500 -0.000108 -0.000004 -0.877391 5.312670 -0.281145 -2.192480 -6.469440 -0.000000 -175.978000 -5.150520 -4.650110 39.081100 -0.000007 -0.000012 -0.078483 0.204121 21.031400 40.985400 -0.000006 -0.000013 -0.054846 3.683930 -65.131600 11.754300 -0.000000 0.000003 -0.000043 -0.000499 -16.597000 -2.192510 6.469440 -0.000001 -179.409000 14.465100 178.592000 -39.081100 -0.002282 -0.040193 0.015070 -0.038164 17.103200 -40.985400 0.000008 0.000006 4.902370 7.033110 -64.947000 -11.754300 -0.000006 -0.000006 -0.005791 -0.068928 -19.378200
